<?xml version="1.0" encoding="UTF-8" standalone="no"?>
<!DOCTYPE svg PUBLIC "-//W3C//DTD SVG 1.1//EN"
 "http://www.w3.org/Graphics/SVG/1.1/DTD/svg11.dtd">
<!-- Generated by graphviz version 5.0.0 (20220707.1540)
 -->
<!-- Title: dependencies Pages: 1 -->
<svg width="1117pt" height="174pt"
 viewBox="0.00 0.00 1117.00 173.80" xmlns="http://www.w3.org/2000/svg" xmlns:xlink="http://www.w3.org/1999/xlink">
<g id="graph0" class="graph" transform="scale(1 1) rotate(0) translate(4 169.8)">
<title>dependencies</title>
<polygon fill="white" stroke="transparent" points="-4,4 -4,-169.8 1113,-169.8 1113,4 -4,4"/>
<text text-anchor="middle" x="554.5" y="-8.2" font-family="sans-serif" font-size="14.00">dependencies</text>
<g id="clust1" class="cluster">
<title>cluster_SingleSignOnModule</title>
<polygon fill="none" stroke="black" stroke-dasharray="1,5" points="8,-32.8 8,-157.8 1101,-157.8 1101,-32.8 8,-32.8"/>
</g>
<g id="clust9" class="cluster">
<title>cluster_SingleSignOnModule_imports</title>
<polygon fill="none" stroke="black" points="893,-40.8 893,-92.8 1093,-92.8 1093,-40.8 893,-40.8"/>
</g>
<g id="clust2" class="cluster">
<title>cluster_SingleSignOnModule_declarations</title>
<polygon fill="none" stroke="black" points="16,-40.8 16,-92.8 885,-92.8 885,-40.8 16,-40.8"/>
</g>
<!-- LoginComponent -->
<g id="node1" class="node">
<title>LoginComponent</title>
<polygon fill="#ffffb3" stroke="black" points="877.27,-84.8 762.73,-84.8 762.73,-48.8 877.27,-48.8 877.27,-84.8"/>
<text text-anchor="middle" x="820" y="-62.6" font-family="Times,serif" font-size="14.00">LoginComponent</text>
</g>
<!-- SingleSignOnModule -->
<g id="node7" class="node">
<title>SingleSignOnModule</title>
<polygon fill="#8dd3c7" stroke="black" points="605.12,-149.8 602.12,-153.8 581.12,-153.8 578.12,-149.8 466.88,-149.8 466.88,-113.8 605.12,-113.8 605.12,-149.8"/>
<text text-anchor="middle" x="536" y="-127.6" font-family="Times,serif" font-size="14.00">SingleSignOnModule</text>
</g>
<!-- LoginComponent&#45;&gt;SingleSignOnModule -->
<g id="edge1" class="edge">
<title>LoginComponent&#45;&gt;SingleSignOnModule</title>
<path fill="none" stroke="black" d="M820,-84.91C820,-104.14 820,-131.8 820,-131.8 820,-131.8 615.11,-131.8 615.11,-131.8"/>
<polygon fill="black" stroke="black" points="615.11,-128.3 605.11,-131.8 615.11,-135.3 615.11,-128.3"/>
</g>
<!-- ManageComponent -->
<g id="node2" class="node">
<title>ManageComponent</title>
<polygon fill="#ffffb3" stroke="black" points="744.42,-84.8 617.58,-84.8 617.58,-48.8 744.42,-48.8 744.42,-84.8"/>
<text text-anchor="middle" x="681" y="-62.6" font-family="Times,serif" font-size="14.00">ManageComponent</text>
</g>
<!-- ManageComponent&#45;&gt;SingleSignOnModule -->
<g id="edge2" class="edge">
<title>ManageComponent&#45;&gt;SingleSignOnModule</title>
<path fill="none" stroke="black" d="M681,-84.83C681,-101.2 681,-122.8 681,-122.8 681,-122.8 615.1,-122.8 615.1,-122.8"/>
<polygon fill="black" stroke="black" points="615.1,-119.3 605.1,-122.8 615.1,-126.3 615.1,-119.3"/>
</g>
<!-- RegisterComponent -->
<g id="node3" class="node">
<title>RegisterComponent</title>
<polygon fill="#ffffb3" stroke="black" points="599.99,-84.8 472.01,-84.8 472.01,-48.8 599.99,-48.8 599.99,-84.8"/>
<text text-anchor="middle" x="536" y="-62.6" font-family="Times,serif" font-size="14.00">RegisterComponent</text>
</g>
<!-- RegisterComponent&#45;&gt;SingleSignOnModule -->
<g id="edge3" class="edge">
<title>RegisterComponent&#45;&gt;SingleSignOnModule</title>
<path fill="none" stroke="black" d="M536,-84.91C536,-84.91 536,-103.79 536,-103.79"/>
<polygon fill="black" stroke="black" points="532.5,-103.79 536,-113.79 539.5,-103.79 532.5,-103.79"/>
</g>
<!-- ResetComponent -->
<g id="node4" class="node">
<title>ResetComponent</title>
<polygon fill="#ffffb3" stroke="black" points="454.44,-84.8 341.56,-84.8 341.56,-48.8 454.44,-48.8 454.44,-84.8"/>
<text text-anchor="middle" x="398" y="-62.6" font-family="Times,serif" font-size="14.00">ResetComponent</text>
</g>
<!-- ResetComponent&#45;&gt;SingleSignOnModule -->
<g id="edge4" class="edge">
<title>ResetComponent&#45;&gt;SingleSignOnModule</title>
<path fill="none" stroke="black" d="M398,-84.83C398,-101.2 398,-122.8 398,-122.8 398,-122.8 456.6,-122.8 456.6,-122.8"/>
<polygon fill="black" stroke="black" points="456.6,-126.3 466.6,-122.8 456.6,-119.3 456.6,-126.3"/>
</g>
<!-- SingleSignOnComponent -->
<g id="node5" class="node">
<title>SingleSignOnComponent</title>
<polygon fill="#ffffb3" stroke="black" points="323.9,-84.8 164.1,-84.8 164.1,-48.8 323.9,-48.8 323.9,-84.8"/>
<text text-anchor="middle" x="244" y="-62.6" font-family="Times,serif" font-size="14.00">SingleSignOnComponent</text>
</g>
<!-- SingleSignOnComponent&#45;&gt;SingleSignOnModule -->
<g id="edge5" class="edge">
<title>SingleSignOnComponent&#45;&gt;SingleSignOnModule</title>
<path fill="none" stroke="black" d="M244,-84.91C244,-104.14 244,-131.8 244,-131.8 244,-131.8 456.8,-131.8 456.8,-131.8"/>
<polygon fill="black" stroke="black" points="456.8,-135.3 466.8,-131.8 456.8,-128.3 456.8,-135.3"/>
</g>
<!-- UpdateComponent -->
<g id="node6" class="node">
<title>UpdateComponent</title>
<polygon fill="#ffffb3" stroke="black" points="145.76,-84.8 24.24,-84.8 24.24,-48.8 145.76,-48.8 145.76,-84.8"/>
<text text-anchor="middle" x="85" y="-62.6" font-family="Times,serif" font-size="14.00">UpdateComponent</text>
</g>
<!-- UpdateComponent&#45;&gt;SingleSignOnModule -->
<g id="edge6" class="edge">
<title>UpdateComponent&#45;&gt;SingleSignOnModule</title>
<path fill="none" stroke="black" d="M85,-85.09C85,-107.01 85,-140.8 85,-140.8 85,-140.8 456.52,-140.8 456.52,-140.8"/>
<polygon fill="black" stroke="black" points="456.52,-144.3 466.52,-140.8 456.52,-137.3 456.52,-144.3"/>
</g>
<!-- SingleSignOnRoutingModule -->
<g id="node8" class="node">
<title>SingleSignOnRoutingModule</title>
<polygon fill="#8dd3c7" stroke="black" points="1084.73,-84.8 1081.73,-88.8 1060.73,-88.8 1057.73,-84.8 901.27,-84.8 901.27,-48.8 1084.73,-48.8 1084.73,-84.8"/>
<text text-anchor="middle" x="993" y="-62.6" font-family="Times,serif" font-size="14.00">SingleSignOnRoutingModule</text>
</g>
<!-- SingleSignOnRoutingModule&#45;&gt;SingleSignOnModule -->
<g id="edge7" class="edge">
<title>SingleSignOnRoutingModule&#45;&gt;SingleSignOnModule</title>
<path fill="none" stroke="black" d="M993,-85.09C993,-107.01 993,-140.8 993,-140.8 993,-140.8 615.41,-140.8 615.41,-140.8"/>
<polygon fill="black" stroke="black" points="615.41,-137.3 605.41,-140.8 615.41,-144.3 615.41,-137.3"/>
</g>
</g>
</svg>
