<?xml version="1.0" encoding="UTF-8" standalone="no"?>
<!DOCTYPE svg PUBLIC "-//W3C//DTD SVG 1.1//EN"
 "http://www.w3.org/Graphics/SVG/1.1/DTD/svg11.dtd">
<!-- Generated by graphviz version 5.0.0 (20220707.1540)
 -->
<!-- Title: dependencies Pages: 1 -->
<svg width="858pt" height="247pt"
 viewBox="0.00 0.00 858.00 246.80" xmlns="http://www.w3.org/2000/svg" xmlns:xlink="http://www.w3.org/1999/xlink">
<g id="graph0" class="graph" transform="scale(1 1) rotate(0) translate(4 242.8)">
<title>dependencies</title>
<polygon fill="white" stroke="transparent" points="-4,4 -4,-242.8 854,-242.8 854,4 -4,4"/>
<text text-anchor="middle" x="425" y="-8.2" font-family="sans-serif" font-size="14.00">dependencies</text>
<g id="clust1" class="cluster">
<title>cluster_AppModule</title>
<polygon fill="none" stroke="black" stroke-dasharray="1,5" points="8,-32.8 8,-230.8 842,-230.8 842,-32.8 8,-32.8"/>
</g>
<g id="clust6" class="cluster">
<title>cluster_AppModule_imports</title>
<polygon fill="none" stroke="black" points="422,-40.8 422,-92.8 834,-92.8 834,-40.8 422,-40.8"/>
</g>
<g id="clust8" class="cluster">
<title>cluster_AppModule_bootstrap</title>
<polygon fill="none" stroke="black" points="364,-170.8 364,-222.8 488,-222.8 488,-170.8 364,-170.8"/>
</g>
<g id="clust2" class="cluster">
<title>cluster_AppModule_declarations</title>
<polygon fill="none" stroke="black" points="16,-40.8 16,-92.8 414,-92.8 414,-40.8 16,-40.8"/>
</g>
<!-- AppComponent -->
<g id="node1" class="node">
<title>AppComponent</title>
<polygon fill="#ffffb3" stroke="black" points="405.94,-84.8 300.06,-84.8 300.06,-48.8 405.94,-48.8 405.94,-84.8"/>
<text text-anchor="middle" x="353" y="-62.6" font-family="Times,serif" font-size="14.00">AppComponent</text>
</g>
<!-- AppModule -->
<g id="node4" class="node">
<title>AppModule</title>
<polygon fill="#8dd3c7" stroke="black" points="467.66,-149.8 464.66,-153.8 443.66,-153.8 440.66,-149.8 384.34,-149.8 384.34,-113.8 467.66,-113.8 467.66,-149.8"/>
<text text-anchor="middle" x="426" y="-127.6" font-family="Times,serif" font-size="14.00">AppModule</text>
</g>
<!-- AppComponent&#45;&gt;AppModule -->
<g id="edge1" class="edge">
<title>AppComponent&#45;&gt;AppModule</title>
<path fill="none" stroke="black" d="M394.94,-84.91C394.94,-84.91 394.94,-103.79 394.94,-103.79"/>
<polygon fill="black" stroke="black" points="391.44,-103.79 394.94,-113.79 398.44,-103.79 391.44,-103.79"/>
</g>
<!-- FooterComponent -->
<g id="node2" class="node">
<title>FooterComponent</title>
<polygon fill="#ffffb3" stroke="black" points="281.88,-84.8 164.12,-84.8 164.12,-48.8 281.88,-48.8 281.88,-84.8"/>
<text text-anchor="middle" x="223" y="-62.6" font-family="Times,serif" font-size="14.00">FooterComponent</text>
</g>
<!-- FooterComponent&#45;&gt;AppModule -->
<g id="edge2" class="edge">
<title>FooterComponent&#45;&gt;AppModule</title>
<path fill="none" stroke="black" d="M223,-84.82C223,-102.17 223,-125.8 223,-125.8 223,-125.8 373.94,-125.8 373.94,-125.8"/>
<polygon fill="black" stroke="black" points="373.94,-129.3 383.94,-125.8 373.94,-122.3 373.94,-129.3"/>
</g>
<!-- HeaderComponent -->
<g id="node3" class="node">
<title>HeaderComponent</title>
<polygon fill="#ffffb3" stroke="black" points="145.75,-84.8 24.25,-84.8 24.25,-48.8 145.75,-48.8 145.75,-84.8"/>
<text text-anchor="middle" x="85" y="-62.6" font-family="Times,serif" font-size="14.00">HeaderComponent</text>
</g>
<!-- HeaderComponent&#45;&gt;AppModule -->
<g id="edge3" class="edge">
<title>HeaderComponent&#45;&gt;AppModule</title>
<path fill="none" stroke="black" d="M85,-85.08C85,-106.12 85,-137.8 85,-137.8 85,-137.8 374.19,-137.8 374.19,-137.8"/>
<polygon fill="black" stroke="black" points="374.19,-141.3 384.19,-137.8 374.19,-134.3 374.19,-141.3"/>
</g>
<!-- AppComponent  -->
<g id="node8" class="node">
<title>AppComponent </title>
<polygon fill="#80b1d3" stroke="black" points="480.44,-214.8 371.56,-214.8 371.56,-178.8 480.44,-178.8 480.44,-214.8"/>
<text text-anchor="middle" x="426" y="-192.6" font-family="Times,serif" font-size="14.00">AppComponent </text>
</g>
<!-- AppModule&#45;&gt;AppComponent  -->
<g id="edge7" class="edge">
<title>AppModule&#45;&gt;AppComponent </title>
<path fill="none" stroke="black" stroke-dasharray="1,5" d="M426,-149.91C426,-149.91 426,-168.79 426,-168.79"/>
<polygon fill="black" stroke="black" points="422.5,-168.79 426,-178.79 429.5,-168.79 422.5,-168.79"/>
</g>
<!-- AppRoutingModule -->
<g id="node5" class="node">
<title>AppRoutingModule</title>
<polygon fill="#8dd3c7" stroke="black" points="826.28,-84.8 823.28,-88.8 802.28,-88.8 799.28,-84.8 697.72,-84.8 697.72,-48.8 826.28,-48.8 826.28,-84.8"/>
<text text-anchor="middle" x="762" y="-62.6" font-family="Times,serif" font-size="14.00">AppRoutingModule</text>
</g>
<!-- AppRoutingModule&#45;&gt;AppModule -->
<g id="edge4" class="edge">
<title>AppRoutingModule&#45;&gt;AppModule</title>
<path fill="none" stroke="black" d="M762,-85.08C762,-106.12 762,-137.8 762,-137.8 762,-137.8 477.88,-137.8 477.88,-137.8"/>
<polygon fill="black" stroke="black" points="477.88,-134.3 467.88,-137.8 477.88,-141.3 477.88,-134.3"/>
</g>
<!-- HomeModule -->
<g id="node6" class="node">
<title>HomeModule</title>
<polygon fill="#8dd3c7" stroke="black" points="679.77,-84.8 676.77,-88.8 655.77,-88.8 652.77,-84.8 586.23,-84.8 586.23,-48.8 679.77,-48.8 679.77,-84.8"/>
<text text-anchor="middle" x="633" y="-62.6" font-family="Times,serif" font-size="14.00">HomeModule</text>
</g>
<!-- HomeModule&#45;&gt;AppModule -->
<g id="edge5" class="edge">
<title>HomeModule&#45;&gt;AppModule</title>
<path fill="none" stroke="black" d="M633,-84.82C633,-102.17 633,-125.8 633,-125.8 633,-125.8 477.89,-125.8 477.89,-125.8"/>
<polygon fill="black" stroke="black" points="477.89,-122.3 467.89,-125.8 477.89,-129.3 477.89,-122.3"/>
</g>
<!-- SingleSignOnModule -->
<g id="node7" class="node">
<title>SingleSignOnModule</title>
<polygon fill="#8dd3c7" stroke="black" points="568.12,-84.8 565.12,-88.8 544.12,-88.8 541.12,-84.8 429.88,-84.8 429.88,-48.8 568.12,-48.8 568.12,-84.8"/>
<text text-anchor="middle" x="499" y="-62.6" font-family="Times,serif" font-size="14.00">SingleSignOnModule</text>
</g>
<!-- SingleSignOnModule&#45;&gt;AppModule -->
<g id="edge6" class="edge">
<title>SingleSignOnModule&#45;&gt;AppModule</title>
<path fill="none" stroke="black" d="M448.89,-84.91C448.89,-84.91 448.89,-103.79 448.89,-103.79"/>
<polygon fill="black" stroke="black" points="445.39,-103.79 448.89,-113.79 452.39,-103.79 445.39,-103.79"/>
</g>
</g>
</svg>
